<?xml version="1.0" standalone="no"?>
<!DOCTYPE svg PUBLIC "-//W3C//DTD SVG 20010904//EN"
 "http://www.w3.org/TR/2001/REC-SVG-20010904/DTD/svg10.dtd">
<svg version="1.0" xmlns="http://www.w3.org/2000/svg"
 width="579.000000pt" height="186.000000pt" viewBox="0 0 579.000000 186.000000"
 preserveAspectRatio="xMidYMid meet">

<g transform="translate(0.000000,186.000000) scale(0.100000,-0.100000)"
fill="#000000" stroke="none">
<path d="M337 1330 c-93 -17 -150 -43 -204 -95 -84 -81 -104 -195 -52 -297 36
-71 110 -111 287 -153 156 -38 204 -75 173 -134 -32 -59 -227 -51 -367 15 -31
14 -57 24 -59 23 -2 -2 -20 -42 -40 -87 -43 -99 -45 -96 79 -137 217 -72 455
-47 561 60 57 56 79 116 73 199 -8 127 -88 192 -296 241 -171 41 -215 68 -197
124 13 41 54 56 150 56 75 -1 101 -5 155 -28 36 -15 69 -29 73 -30 8 -2 76
148 77 169 0 15 -80 49 -148 63 -75 16 -209 21 -265 11z"/>
<path d="M5190 1323 c-122 -34 -192 -91 -225 -182 -30 -87 -14 -179 42 -241
46 -52 111 -81 263 -119 69 -17 136 -39 150 -50 35 -26 38 -64 5 -89 -69 -54
-261 -28 -405 55 -3 2 -23 -38 -45 -88 -38 -88 -38 -92 -20 -105 57 -42 228
-83 346 -84 180 -1 328 72 375 186 21 50 18 157 -5 203 -42 82 -114 121 -312
167 -126 30 -162 52 -157 97 5 52 45 72 141 71 77 -1 118 -12 227 -58 20 -8
96 174 77 186 -7 5 -48 20 -92 34 -107 35 -270 42 -365 17z"/>
<path d="M910 880 l0 -440 115 0 115 0 2 225 3 225 108 -180 108 -180 54 0 53
0 109 185 108 185 6 -107 c4 -60 7 -163 8 -230 l1 -123 110 0 110 0 0 440 0
440 -102 0 -103 -1 -85 -147 c-46 -81 -113 -196 -148 -255 l-64 -109 -152 254
-152 253 -102 3 -102 3 0 -441z"/>
<path d="M2100 880 l0 -440 115 0 115 0 2 225 3 225 108 -180 108 -180 54 0
53 0 109 185 108 185 6 -107 c4 -60 7 -163 8 -230 l1 -123 110 0 110 0 0 440
0 440 -102 0 -103 -1 -85 -147 c-46 -81 -113 -196 -148 -255 l-64 -109 -152
254 -152 253 -102 3 -102 3 0 -441z"/>
<path d="M3180 1316 c0 -2 74 -128 165 -280 l165 -277 0 -159 0 -160 125 0
125 0 0 160 0 160 156 262 c85 144 160 270 165 280 9 17 2 18 -109 18 l-119 0
-102 -170 c-56 -93 -104 -170 -106 -170 -2 0 -50 77 -106 170 l-102 170 -128
0 c-71 0 -129 -2 -129 -4z"/>
<path d="M4150 880 l0 -440 355 0 355 0 0 95 0 95 -230 0 -230 0 0 80 0 80
195 0 196 0 -3 93 -3 92 -192 3 -193 2 0 75 0 75 220 0 220 0 0 95 0 95 -345
0 -345 0 0 -440z"/>
</g>
</svg>
